<?xml version='1.0' encoding='utf-8'?>
<svg viewBox="1 1 1488 1054" xmlns="http://www.w3.org/2000/svg" xmlns:svg="http://www.w3.org/2000/svg" xmlns:xlink="http://www.w3.org/1999/xlink"><style type="text/css">text{font-family:Arial;}</style><rect fill="none" fill-opacity="0" height="1052" stroke="#000000" stroke-opacity="1" stroke-width="1" width="1486" x="1" y="1" /><line fill="none" stroke="#000000" stroke-width="1" x1="1" x2="1486" y1="60" y2="60" /><line fill="none" stroke="#000000" stroke-width="1" x1="744" x2="744" y1="1" y2="60" /><line fill="none" stroke="#000000" stroke-width="1" x1="1" x2="1486" y1="90" y2="90" /><text text-anchor="start" x="10" y="20">Project: </text><text text-anchor="start" x="10" y="50">Name: Page   1</text><text text-anchor="end" x="739" y="50">Page 1/1</text><text text-anchor="start" x="749" y="20">Company: </text><text text-anchor="end" x="1481" y="20">Author: gdai</text><text text-anchor="start" x="749" y="50">Version: version 1</text><text text-anchor="middle" x="1115" y="50">Created on: 22/10/28 at 10:21</text><text text-anchor="end" x="1481" y="50">Last changed: 22/10/28 at 10:21</text><text x="10" y="80">Arbre Analyste - version 2.3.2 - 2014-19</text><g transform="translate(59.693225, 100.000000) scale(1.476145)" x="1" y="1"><path d="M 161,167 L 261,167 L 261,210 L 161,210 Z M 261,187 L 161,187 Z" fill="#ffffff" fill-opacity="1" stroke="#000000" stroke-opacity="1" stroke-width="1" /><text  font-size="10px" text-anchor="middle" x="211.38461538461584" y="181.0">FC_A1</text ><text  font-size="10px" text-anchor="middle" x="211.38461538461584" y="200.0" /><path d="M 196,225 a 15 15 0 0 1 30,0 l 0,15 l -30,0 Z" fill="white" fill-opacity="0" stroke="#000000" stroke-opacity="1" stroke-width="1" /><text  font-size="10px" text-anchor="start" x="231.38461538461584" y="222.0">Q=9.9e-05</text ><text  font-size="10px" text-anchor="start" x="231.38461538461584" y="235.0">F=9.9e-05</text ><text  font-size="10px" text-anchor="end" x="191.38461538461584" y="222.0">T=1000</text ><path d="M 211,240 L 211,308 L 251,308 L 251,320" fill="none" fill-opacity="0" stroke="#000000" stroke-opacity="1" stroke-width="1" /><path d="M 211,240 L 211,308 L 115,308 L 115,320" fill="none" fill-opacity="0" stroke="#000000" stroke-opacity="1" stroke-width="1" /><path d="M 418,170 L 518,170 L 518,213 L 418,213 Z M 518,190 L 418,190 Z" fill="#ffffff" fill-opacity="1" stroke="#000000" stroke-opacity="1" stroke-width="1" /><text  font-size="10px" text-anchor="middle" x="468.3846153846158" y="184.0">FC_A2</text ><text  font-size="10px" text-anchor="middle" x="468.3846153846158" y="203.0" /><path d="M 453,228 a 15 15 0 0 1 30,0 l 0,15 l -30,0 Z" fill="white" fill-opacity="0" stroke="#000000" stroke-opacity="1" stroke-width="1" /><text  font-size="10px" text-anchor="start" x="488.3846153846158" y="225.0">Q=9.9e-05</text ><text  font-size="10px" text-anchor="start" x="488.3846153846158" y="238.0">F=9.9e-05</text ><text  font-size="10px" text-anchor="end" x="448.3846153846158" y="225.0">T=1000</text ><path d="M 468,243 L 468,310 L 521,310 L 521,323" fill="none" fill-opacity="0" stroke="#000000" stroke-opacity="1" stroke-width="1" /><path d="M 468,243 L 468,310 L 390,310 L 390,322" fill="none" fill-opacity="0" stroke="#000000" stroke-opacity="1" stroke-width="1" /><path d="M 675,169 L 775,169 L 775,212 L 675,212 Z M 775,189 L 675,189 Z" fill="#ffffff" fill-opacity="1" stroke="#000000" stroke-opacity="1" stroke-width="1" /><text  font-size="10px" text-anchor="middle" x="725.3846153846158" y="183.0">FC_A3</text ><text  font-size="10px" text-anchor="middle" x="725.3846153846158" y="202.0" /><path d="M 710,227 a 15 15 0 0 1 30,0 l 0,15 l -30,0 Z" fill="white" fill-opacity="0" stroke="#000000" stroke-opacity="1" stroke-width="1" /><text  font-size="10px" text-anchor="start" x="745.3846153846158" y="224.0">Q=9.9e-05</text ><text  font-size="10px" text-anchor="start" x="745.3846153846158" y="237.0">F=9.9e-05</text ><text  font-size="10px" text-anchor="end" x="705.3846153846158" y="224.0">T=1000</text ><path d="M 725,242 L 725,313 L 660,313 L 660,325" fill="none" fill-opacity="0" stroke="#000000" stroke-opacity="1" stroke-width="1" /><path d="M 725,242 L 725,313 L 804,313 L 804,326" fill="none" fill-opacity="0" stroke="#000000" stroke-opacity="1" stroke-width="1" /><path d="M 418,0 L 518,0 L 518,43 L 418,43 Z M 518,20 L 418,20 Z" fill="#ffffff" fill-opacity="1" stroke="#000000" stroke-opacity="1" stroke-width="1" /><text  font-size="10px" text-anchor="middle" x="468.3846153846158" y="14.0">FC_One_Appli</text ><text  font-size="10px" text-anchor="middle" x="468.3846153846158" y="33.0" /><path d="M 453,73 m 15,-8 l 0,8 m -15,0 a 15 30 0 0 1 30,0 a 15 8 0 0 0 -30,0, Z" fill="white" fill-opacity="0" stroke="#000000" stroke-opacity="1" stroke-width="1" /><text  font-size="10px" text-anchor="start" x="488.3846153846158" y="55.0">Q=1.0e-04</text ><text  font-size="10px" text-anchor="start" x="488.3846153846158" y="68.0">F=1.0e-04</text ><text  font-size="10px" text-anchor="end" x="448.3846153846158" y="55.0">T=1000</text ><path d="M 468,73 L 468,155 L 211,155 L 211,167" fill="none" fill-opacity="0" stroke="#000000" stroke-opacity="1" stroke-width="1" /><path d="M 468,73 L 468,155 L 725,155 L 725,169" fill="none" fill-opacity="0" stroke="#000000" stroke-opacity="1" stroke-width="1" /><path d="M 468,73 L 468,155 L 468,155 L 468,170" fill="none" fill-opacity="0" stroke="#000000" stroke-opacity="1" stroke-width="1" /><path d="M 0,443 L 100,443 L 100,486 L 0,486 Z M 100,463 L 0,463 Z" fill="#ffffff" fill-opacity="1" stroke="#000000" stroke-opacity="1" stroke-width="1" /><text  font-size="10px" text-anchor="middle" x="50.0" y="457.15384615384664">C1L_a</text ><text  font-size="10px" text-anchor="middle" x="50.0" y="476.15384615384664" /><path d="M 45,491 a 5 5 0 0 1 10,0 a 5 5 0 0 1 -10,0 Z" fill="black" stroke="#000000" stroke-width="1" /><text font-size="10px" text-anchor="end" x="100.0" y="506.15384615384664">λ=1.00e-05</text><path d="M 65,320 L 165,320 L 165,363 L 65,363 Z M 165,340 L 65,340 Z" fill="#ffffff" fill-opacity="1" stroke="#000000" stroke-opacity="1" stroke-width="1" /><text  font-size="10px" text-anchor="middle" x="115.38461538461584" y="334.0">A1L</text ><text  font-size="10px" text-anchor="middle" x="115.38461538461584" y="353.0" /><path d="M 100,378 a 15 15 0 0 1 30,0 l 0,15 l -30,0 Z" fill="white" fill-opacity="0" stroke="#000000" stroke-opacity="1" stroke-width="1" /><path d="M 115,393 L 115,431 L 50,431 L 50,443" fill="none" fill-opacity="0" stroke="#000000" stroke-opacity="1" stroke-width="1" /><path d="M 115,393 L 115,431 L 146,431 L 146,532" fill="none" fill-opacity="0" stroke="#000000" stroke-opacity="1" stroke-width="1" /><path d="M 201,320 L 301,320 L 301,363 L 201,363 Z M 301,340 L 201,340 Z" fill="#ffffff" fill-opacity="1" stroke="#000000" stroke-opacity="1" stroke-width="1" /><text  font-size="10px" text-anchor="middle" x="251.38461538461584" y="334.0">A1R</text ><text  font-size="10px" text-anchor="middle" x="251.38461538461584" y="353.0" /><path d="M 251,393 l 0,-30" fill="white" fill-opacity="0" stroke="#000000" stroke-opacity="1" stroke-width="1" /><text  font-size="10px" text-anchor="start" x="271.3846153846158" y="375.0">Q=1.0e-02</text ><text  font-size="10px" text-anchor="start" x="271.3846153846158" y="388.0">F=9.9e-03</text ><text  font-size="10px" text-anchor="end" x="231.38461538461584" y="375.0">T=1000</text ><path d="M 251,393 L 251,435 L 251,435 L 251,447" fill="none" fill-opacity="0" stroke="#000000" stroke-opacity="1" stroke-width="1" /><path d="M 201,447 L 301,447 L 301,490 L 201,490 Z M 301,467 L 201,467 Z" fill="#ffffff" fill-opacity="1" stroke="#000000" stroke-opacity="1" stroke-width="1" /><text  font-size="10px" text-anchor="middle" x="251.38461538461584" y="461.0">C1R</text ><text  font-size="10px" text-anchor="middle" x="251.38461538461584" y="480.0" /><path d="M 246,495 a 5 5 0 0 1 10,0 a 5 5 0 0 1 -10,0 Z" fill="black" stroke="#000000" stroke-width="1" /><text font-size="10px" text-anchor="end" x="301.3846153846158" y="510.0">λ=1.00e-05</text><path d="M 340,322 L 440,322 L 440,365 L 340,365 Z M 440,342 L 340,342 Z" fill="#ffffff" fill-opacity="1" stroke="#000000" stroke-opacity="1" stroke-width="1" /><text  font-size="10px" text-anchor="middle" x="390.3846153846158" y="336.0">A2L</text ><text  font-size="10px" text-anchor="middle" x="390.3846153846158" y="355.0" /><path d="M 390,395 l 0,-30" fill="white" fill-opacity="0" stroke="#000000" stroke-opacity="1" stroke-width="1" /><text  font-size="10px" text-anchor="start" x="410.3846153846158" y="377.0">Q=1.0e-02</text ><text  font-size="10px" text-anchor="start" x="410.3846153846158" y="390.0">F=9.9e-03</text ><text  font-size="10px" text-anchor="end" x="370.3846153846158" y="377.0">T=1000</text ><path d="M 390,395 L 390,437 L 390,437 L 390,449" fill="none" fill-opacity="0" stroke="#000000" stroke-opacity="1" stroke-width="1" /><path d="M 340,449 L 440,449 L 440,492 L 340,492 Z M 440,469 L 340,469 Z" fill="#ffffff" fill-opacity="1" stroke="#000000" stroke-opacity="1" stroke-width="1" /><text  font-size="10px" text-anchor="middle" x="390.3846153846158" y="463.0">C2L</text ><text  font-size="10px" text-anchor="middle" x="390.3846153846158" y="482.0" /><path d="M 385,497 a 5 5 0 0 1 10,0 a 5 5 0 0 1 -10,0 Z" fill="black" stroke="#000000" stroke-width="1" /><text font-size="10px" text-anchor="end" x="440.3846153846158" y="512.0">λ=1.00e-05</text><path d="M 471,323 L 571,323 L 571,366 L 471,366 Z M 571,343 L 471,343 Z" fill="#ffffff" fill-opacity="1" stroke="#000000" stroke-opacity="1" stroke-width="1" /><text  font-size="10px" text-anchor="middle" x="521.3846153846158" y="337.0">A2R</text ><text  font-size="10px" text-anchor="middle" x="521.3846153846158" y="356.0" /><path d="M 521,396 l 0,-30" fill="white" fill-opacity="0" stroke="#000000" stroke-opacity="1" stroke-width="1" /><text  font-size="10px" text-anchor="start" x="541.3846153846158" y="378.0">Q=1.0e-02</text ><text  font-size="10px" text-anchor="start" x="541.3846153846158" y="391.0">F=9.9e-03</text ><text  font-size="10px" text-anchor="end" x="501.3846153846158" y="378.0">T=1000</text ><path d="M 521,396 L 521,438 L 521,438 L 521,450" fill="none" fill-opacity="0" stroke="#000000" stroke-opacity="1" stroke-width="1" /><path d="M 471,450 L 571,450 L 571,493 L 471,493 Z M 571,470 L 471,470 Z" fill="#ffffff" fill-opacity="1" stroke="#000000" stroke-opacity="1" stroke-width="1" /><text  font-size="10px" text-anchor="middle" x="521.3846153846158" y="464.0">C2R</text ><text  font-size="10px" text-anchor="middle" x="521.3846153846158" y="483.0" /><path d="M 516,498 a 5 5 0 0 1 10,0 a 5 5 0 0 1 -10,0 Z" fill="black" stroke="#000000" stroke-width="1" /><text font-size="10px" text-anchor="end" x="571.3846153846158" y="513.0">λ=1.00e-05</text><path d="M 610,325 L 710,325 L 710,368 L 610,368 Z M 710,345 L 610,345 Z" fill="#ffffff" fill-opacity="1" stroke="#000000" stroke-opacity="1" stroke-width="1" /><text  font-size="10px" text-anchor="middle" x="660.3846153846158" y="339.0">A3L</text ><text  font-size="10px" text-anchor="middle" x="660.3846153846158" y="358.0" /><path d="M 660,398 l 0,-30" fill="white" fill-opacity="0" stroke="#000000" stroke-opacity="1" stroke-width="1" /><text  font-size="10px" text-anchor="start" x="680.3846153846158" y="380.0">Q=1.0e-02</text ><text  font-size="10px" text-anchor="start" x="680.3846153846158" y="393.0">F=9.9e-03</text ><text  font-size="10px" text-anchor="end" x="640.3846153846158" y="380.0">T=1000</text ><path d="M 660,398 L 660,440 L 660,440 L 660,452" fill="none" fill-opacity="0" stroke="#000000" stroke-opacity="1" stroke-width="1" /><path d="M 610,452 L 710,452 L 710,495 L 610,495 Z M 710,472 L 610,472 Z" fill="#ffffff" fill-opacity="1" stroke="#000000" stroke-opacity="1" stroke-width="1" /><text  font-size="10px" text-anchor="middle" x="660.3846153846158" y="466.0">C3L</text ><text  font-size="10px" text-anchor="middle" x="660.3846153846158" y="485.0" /><path d="M 655,500 a 5 5 0 0 1 10,0 a 5 5 0 0 1 -10,0 Z" fill="black" stroke="#000000" stroke-width="1" /><text font-size="10px" text-anchor="end" x="710.3846153846158" y="515.0">λ=1.00e-05</text><path d="M 754,326 L 854,326 L 854,369 L 754,369 Z M 854,346 L 754,346 Z" fill="#ffffff" fill-opacity="1" stroke="#000000" stroke-opacity="1" stroke-width="1" /><text  font-size="10px" text-anchor="middle" x="804.3846153846158" y="340.0">A3R</text ><text  font-size="10px" text-anchor="middle" x="804.3846153846158" y="359.0" /><path d="M 789,384 a 15 15 0 0 1 30,0 l 0,15 l -30,0 Z" fill="white" fill-opacity="0" stroke="#000000" stroke-opacity="1" stroke-width="1" /><text  font-size="10px" text-anchor="start" x="824.3846153846158" y="381.0">Q=1.0e-02</text ><text  font-size="10px" text-anchor="start" x="824.3846153846158" y="394.0">F=9.9e-03</text ><text  font-size="10px" text-anchor="end" x="784.3846153846158" y="381.0">T=1000</text ><path d="M 804,399 L 804,439 L 796,439 L 796,451" fill="none" fill-opacity="0" stroke="#000000" stroke-opacity="1" stroke-width="1" /><path d="M 804,399 L 804,439 L 877,439 L 877,541" fill="none" fill-opacity="0" stroke="#000000" stroke-opacity="1" stroke-width="1" /><path d="M 746,451 L 846,451 L 846,494 L 746,494 Z M 846,471 L 746,471 Z" fill="#ffffff" fill-opacity="1" stroke="#000000" stroke-opacity="1" stroke-width="1" /><text  font-size="10px" text-anchor="middle" x="796.6923076923084" y="465.46153846153857">C3R_a</text ><text  font-size="10px" text-anchor="middle" x="796.6923076923084" y="484.46153846153857" /><path d="M 791,499 a 5 5 0 0 1 10,0 a 5 5 0 0 1 -10,0 Z" fill="black" stroke="#000000" stroke-width="1" /><text font-size="10px" text-anchor="end" x="846.6923076923084" y="514.4615384615386">λ=1.00e-05</text><path d="M 96,532 L 196,532 L 196,575 L 96,575 Z M 196,552 L 96,552 Z" fill="#ffffff" fill-opacity="1" stroke="#000000" stroke-opacity="1" stroke-width="1" /><text  font-size="10px" text-anchor="middle" x="146.38461538461584" y="546.6923076923069">C1L_b</text ><text  font-size="10px" text-anchor="middle" x="146.38461538461584" y="565.6923076923069" /><path d="M 141,580 a 5 5 0 0 1 10,0 a 5 5 0 0 1 -10,0 Z" fill="black" stroke="#000000" stroke-width="1" /><text font-size="10px" text-anchor="end" x="196.38461538461584" y="595.6923076923069">λ=1.00e-05</text><path d="M 827,541 L 927,541 L 927,584 L 827,584 Z M 927,561 L 827,561 Z" fill="#ffffff" fill-opacity="1" stroke="#000000" stroke-opacity="1" stroke-width="1" /><text  font-size="10px" text-anchor="middle" x="877.1538461538455" y="555.9230769230775">C3R_b</text ><text  font-size="10px" text-anchor="middle" x="877.1538461538455" y="574.9230769230775" /><path d="M 872,589 a 5 5 0 0 1 10,0 a 5 5 0 0 1 -10,0 Z" fill="black" stroke="#000000" stroke-width="1" /><text font-size="10px" text-anchor="end" x="927.1538461538455" y="604.9230769230775">λ=1.00e-05</text></g></svg>