<?xml version='1.0' encoding='utf-8'?>
<svg viewBox="1 1 1488 1054" xmlns="http://www.w3.org/2000/svg" xmlns:svg="http://www.w3.org/2000/svg" xmlns:xlink="http://www.w3.org/1999/xlink"><style type="text/css">text{font-family:Arial;}</style><rect fill="none" fill-opacity="0" height="1052" stroke="#000000" stroke-opacity="1" stroke-width="1" width="1486" x="1" y="1" /><line fill="none" stroke="#000000" stroke-width="1" x1="1" x2="1486" y1="60" y2="60" /><line fill="none" stroke="#000000" stroke-width="1" x1="744" x2="744" y1="1" y2="60" /><line fill="none" stroke="#000000" stroke-width="1" x1="1" x2="1486" y1="90" y2="90" /><text text-anchor="start" x="10" y="20">Project: </text><text text-anchor="start" x="10" y="50">Name: Page   1</text><text text-anchor="end" x="739" y="50">Page 1/1</text><text text-anchor="start" x="749" y="20">Company: </text><text text-anchor="end" x="1481" y="20">Author: gdai</text><text text-anchor="start" x="749" y="50">Version: version 1</text><text text-anchor="middle" x="1115" y="50">Created on: 22/10/28 at 10:21</text><text text-anchor="end" x="1481" y="50">Last changed: 22/10/28 at 12:29</text><text x="10" y="80">Arbre Analyste - version 2.3.2 - 2014-19</text><g transform="translate(152.250000, 100.000000) scale(1.500000)" x="1" y="1"><path d="M 96,167 L 196,167 L 196,210 L 96,210 Z M 196,187 L 96,187 Z" fill="#ffffff" fill-opacity="1" stroke="#000000" stroke-opacity="1" stroke-width="1" /><text  font-size="10px" text-anchor="middle" x="146.0" y="181.0">FC_A1</text ><text  font-size="10px" text-anchor="middle" x="146.0" y="200.0" /><path d="M 131,225 a 15 15 0 0 1 30,0 l 0,15 l -30,0 Z" fill="white" fill-opacity="0" stroke="#000000" stroke-opacity="1" stroke-width="1" /><text  font-size="10px" text-anchor="start" x="166.0" y="222.0">Q=9.9e-05</text ><text  font-size="10px" text-anchor="start" x="166.0" y="235.0">F=9.9e-05</text ><text  font-size="10px" text-anchor="end" x="126.0" y="222.0">T=1000</text ><path d="M 146,240 L 146,308 L 186,308 L 186,320" fill="none" fill-opacity="0" stroke="#000000" stroke-opacity="1" stroke-width="1" /><path d="M 146,240 L 146,308 L 50,308 L 50,320" fill="none" fill-opacity="0" stroke="#000000" stroke-opacity="1" stroke-width="1" /><path d="M 353,170 L 453,170 L 453,213 L 353,213 Z M 453,190 L 353,190 Z" fill="#ffffff" fill-opacity="1" stroke="#000000" stroke-opacity="1" stroke-width="1" /><text  font-size="10px" text-anchor="middle" x="403.0" y="184.0">FC_A2</text ><text  font-size="10px" text-anchor="middle" x="403.0" y="203.0" /><path d="M 388,228 a 15 15 0 0 1 30,0 l 0,15 l -30,0 Z" fill="white" fill-opacity="0" stroke="#000000" stroke-opacity="1" stroke-width="1" /><text  font-size="10px" text-anchor="start" x="423.0" y="225.0">Q=9.9e-05</text ><text  font-size="10px" text-anchor="start" x="423.0" y="238.0">F=9.9e-05</text ><text  font-size="10px" text-anchor="end" x="383.0" y="225.0">T=1000</text ><path d="M 403,243 L 403,310 L 325,310 L 325,322" fill="none" fill-opacity="0" stroke="#000000" stroke-opacity="1" stroke-width="1" /><path d="M 403,243 L 403,310 L 460,310 L 460,322" fill="none" fill-opacity="0" stroke="#000000" stroke-opacity="1" stroke-width="1" /><path d="M 610,169 L 710,169 L 710,212 L 610,212 Z M 710,189 L 610,189 Z" fill="#ffffff" fill-opacity="1" stroke="#000000" stroke-opacity="1" stroke-width="1" /><text  font-size="10px" text-anchor="middle" x="660.0" y="183.0">FC_A3</text ><text  font-size="10px" text-anchor="middle" x="660.0" y="202.0" /><path d="M 645,227 a 15 15 0 0 1 30,0 l 0,15 l -30,0 Z" fill="white" fill-opacity="0" stroke="#000000" stroke-opacity="1" stroke-width="1" /><text  font-size="10px" text-anchor="start" x="680.0" y="224.0">Q=9.9e-05</text ><text  font-size="10px" text-anchor="start" x="680.0" y="237.0">F=9.9e-05</text ><text  font-size="10px" text-anchor="end" x="640.0" y="224.0">T=1000</text ><path d="M 660,242 L 660,313 L 595,313 L 595,325" fill="none" fill-opacity="0" stroke="#000000" stroke-opacity="1" stroke-width="1" /><path d="M 660,242 L 660,313 L 739,313 L 739,326" fill="none" fill-opacity="0" stroke="#000000" stroke-opacity="1" stroke-width="1" /><path d="M 353,0 L 453,0 L 453,43 L 353,43 Z M 453,20 L 353,20 Z" fill="#ffffff" fill-opacity="1" stroke="#000000" stroke-opacity="1" stroke-width="1" /><text  font-size="10px" text-anchor="middle" x="403.0" y="14.0">FC_One_Appli</text ><text  font-size="10px" text-anchor="middle" x="403.0" y="33.0" /><path d="M 388,73 m 15,-8 l 0,8 m -15,0 a 15 30 0 0 1 30,0 a 15 8 0 0 0 -30,0, Z" fill="white" fill-opacity="0" stroke="#000000" stroke-opacity="1" stroke-width="1" /><text  font-size="10px" text-anchor="start" x="423.0" y="55.0">Q=3.0e-04</text ><text  font-size="10px" text-anchor="start" x="423.0" y="68.0">F=3.0e-04</text ><text  font-size="10px" text-anchor="end" x="383.0" y="55.0">T=1000</text ><path d="M 403,73 L 403,155 L 146,155 L 146,167" fill="none" fill-opacity="0" stroke="#000000" stroke-opacity="1" stroke-width="1" /><path d="M 403,73 L 403,155 L 660,155 L 660,169" fill="none" fill-opacity="0" stroke="#000000" stroke-opacity="1" stroke-width="1" /><path d="M 403,73 L 403,155 L 403,155 L 403,170" fill="none" fill-opacity="0" stroke="#000000" stroke-opacity="1" stroke-width="1" /><path d="M 0,320 L 100,320 L 100,363 L 0,363 Z M 100,340 L 0,340 Z" fill="#ffffff" fill-opacity="1" stroke="#000000" stroke-opacity="1" stroke-width="1" /><text  font-size="10px" text-anchor="middle" x="50.0" y="334.0">A1L</text ><text  font-size="10px" text-anchor="middle" x="50.0" y="353.0" /><path d="M 50,393 l 0,-30" fill="white" fill-opacity="0" stroke="#000000" stroke-opacity="1" stroke-width="1" /><path d="M 50,393 L 50,436 L 50,436 L 50,448" fill="none" fill-opacity="0" stroke="#000000" stroke-opacity="1" stroke-width="1" /><path d="M 136,320 L 236,320 L 236,363 L 136,363 Z M 236,340 L 136,340 Z" fill="#ffffff" fill-opacity="1" stroke="#000000" stroke-opacity="1" stroke-width="1" /><text  font-size="10px" text-anchor="middle" x="186.0" y="334.0">A1R</text ><text  font-size="10px" text-anchor="middle" x="186.0" y="353.0" /><path d="M 186,393 l 0,-30" fill="white" fill-opacity="0" stroke="#000000" stroke-opacity="1" stroke-width="1" /><text  font-size="10px" text-anchor="start" x="206.0" y="375.0">Q=1.0e-02</text ><text  font-size="10px" text-anchor="start" x="206.0" y="388.0">F=9.9e-03</text ><text  font-size="10px" text-anchor="end" x="166.0" y="375.0">T=1000</text ><path d="M 186,393 L 186,438 L 186,438 L 186,450" fill="none" fill-opacity="0" stroke="#000000" stroke-opacity="1" stroke-width="1" /><path d="M 136,450 L 236,450 L 236,493 L 136,493 Z M 236,470 L 136,470 Z" fill="#ffffff" fill-opacity="1" stroke="#000000" stroke-opacity="1" stroke-width="1" /><text  font-size="10px" text-anchor="middle" x="186.4195804195806" y="464.3566433566434">C1R</text ><text  font-size="10px" text-anchor="middle" x="186.4195804195806" y="483.3566433566434" /><path d="M 181,498 a 5 5 0 0 1 10,0 a 5 5 0 0 1 -10,0 Z" fill="black" stroke="#000000" stroke-width="1" /><text font-size="10px" text-anchor="end" x="236.4195804195806" y="513.3566433566434">λ=1.00e-05</text><path d="M 275,322 L 375,322 L 375,365 L 275,365 Z M 375,342 L 275,342 Z" fill="#ffffff" fill-opacity="1" stroke="#000000" stroke-opacity="1" stroke-width="1" /><text  font-size="10px" text-anchor="middle" x="325.0" y="336.0">A2L</text ><text  font-size="10px" text-anchor="middle" x="325.0" y="355.0" /><path d="M 325,395 l 0,-30" fill="white" fill-opacity="0" stroke="#000000" stroke-opacity="1" stroke-width="1" /><text  font-size="10px" text-anchor="start" x="345.0" y="377.0">Q=1.0e-02</text ><text  font-size="10px" text-anchor="start" x="345.0" y="390.0">F=9.9e-03</text ><text  font-size="10px" text-anchor="end" x="305.0" y="377.0">T=1000</text ><path d="M 325,395 L 325,439 L 324,439 L 324,451" fill="none" fill-opacity="0" stroke="#000000" stroke-opacity="1" stroke-width="1" /><path d="M 274,451 L 374,451 L 374,494 L 274,494 Z M 374,471 L 274,471 Z" fill="#ffffff" fill-opacity="1" stroke="#000000" stroke-opacity="1" stroke-width="1" /><text  font-size="10px" text-anchor="middle" x="324.72027972028" y="465.7272727272732">C2L</text ><text  font-size="10px" text-anchor="middle" x="324.72027972028" y="484.7272727272732" /><path d="M 319,499 a 5 5 0 0 1 10,0 a 5 5 0 0 1 -10,0 Z" fill="black" stroke="#000000" stroke-width="1" /><text font-size="10px" text-anchor="end" x="374.72027972028" y="514.7272727272732">λ=1.00e-05</text><path d="M 410,322 L 510,322 L 510,365 L 410,365 Z M 510,342 L 410,342 Z" fill="#ffffff" fill-opacity="1" stroke="#000000" stroke-opacity="1" stroke-width="1" /><text  font-size="10px" text-anchor="middle" x="460.5454545454544" y="336.090909090909">A2R</text ><text  font-size="10px" text-anchor="middle" x="460.5454545454544" y="355.090909090909" /><path d="M 460,395 l 0,-30" fill="white" fill-opacity="0" stroke="#000000" stroke-opacity="1" stroke-width="1" /><text  font-size="10px" text-anchor="start" x="480.5454545454544" y="377.090909090909">Q=1.0e-02</text ><text  font-size="10px" text-anchor="start" x="480.5454545454544" y="390.090909090909">F=9.9e-03</text ><text  font-size="10px" text-anchor="end" x="440.5454545454544" y="377.090909090909">T=1000</text ><path d="M 460,395 L 460,441 L 460,441 L 460,453" fill="none" fill-opacity="0" stroke="#000000" stroke-opacity="1" stroke-width="1" /><path d="M 410,453 L 510,453 L 510,496 L 410,496 Z M 510,473 L 410,473 Z" fill="#ffffff" fill-opacity="1" stroke="#000000" stroke-opacity="1" stroke-width="1" /><text  font-size="10px" text-anchor="middle" x="460.19580419580393" y="467.3566433566433">C2R</text ><text  font-size="10px" text-anchor="middle" x="460.19580419580393" y="486.3566433566433" /><path d="M 455,501 a 5 5 0 0 1 10,0 a 5 5 0 0 1 -10,0 Z" fill="black" stroke="#000000" stroke-width="1" /><text font-size="10px" text-anchor="end" x="510.19580419580393" y="516.3566433566433">λ=1.00e-05</text><path d="M 545,325 L 645,325 L 645,368 L 545,368 Z M 645,345 L 545,345 Z" fill="#ffffff" fill-opacity="1" stroke="#000000" stroke-opacity="1" stroke-width="1" /><text  font-size="10px" text-anchor="middle" x="595.0" y="339.0">A3L</text ><text  font-size="10px" text-anchor="middle" x="595.0" y="358.0" /><path d="M 595,398 l 0,-30" fill="white" fill-opacity="0" stroke="#000000" stroke-opacity="1" stroke-width="1" /><text  font-size="10px" text-anchor="start" x="615.0" y="380.0">Q=1.0e-02</text ><text  font-size="10px" text-anchor="start" x="615.0" y="393.0">F=9.9e-03</text ><text  font-size="10px" text-anchor="end" x="575.0" y="380.0">T=1000</text ><path d="M 595,398 L 595,440 L 595,440 L 595,452" fill="none" fill-opacity="0" stroke="#000000" stroke-opacity="1" stroke-width="1" /><path d="M 545,452 L 645,452 L 645,495 L 545,495 Z M 645,472 L 545,472 Z" fill="#ffffff" fill-opacity="1" stroke="#000000" stroke-opacity="1" stroke-width="1" /><text  font-size="10px" text-anchor="middle" x="595.0" y="466.0">C3L</text ><text  font-size="10px" text-anchor="middle" x="595.0" y="485.0" /><path d="M 590,500 a 5 5 0 0 1 10,0 a 5 5 0 0 1 -10,0 Z" fill="black" stroke="#000000" stroke-width="1" /><text font-size="10px" text-anchor="end" x="645.0" y="515.0">λ=1.00e-05</text><path d="M 689,326 L 789,326 L 789,369 L 689,369 Z M 789,346 L 689,346 Z" fill="#ffffff" fill-opacity="1" stroke="#000000" stroke-opacity="1" stroke-width="1" /><text  font-size="10px" text-anchor="middle" x="739.0" y="340.0">A3R</text ><text  font-size="10px" text-anchor="middle" x="739.0" y="359.0" /><path d="M 739,399 l 0,-30" fill="white" fill-opacity="0" stroke="#000000" stroke-opacity="1" stroke-width="1" /><text  font-size="10px" text-anchor="start" x="759.0" y="381.0">Q=1.0e-02</text ><text  font-size="10px" text-anchor="start" x="759.0" y="394.0">F=9.9e-03</text ><text  font-size="10px" text-anchor="end" x="719.0" y="381.0">T=1000</text ><path d="M 739,399 L 739,440 L 739,440 L 739,452" fill="none" fill-opacity="0" stroke="#000000" stroke-opacity="1" stroke-width="1" /><path d="M 689,452 L 789,452 L 789,495 L 689,495 Z M 789,472 L 689,472 Z" fill="#ffffff" fill-opacity="1" stroke="#000000" stroke-opacity="1" stroke-width="1" /><text  font-size="10px" text-anchor="middle" x="739.0" y="466.2307692307693">C3R</text ><text  font-size="10px" text-anchor="middle" x="739.0" y="485.2307692307693" /><path d="M 734,500 a 5 5 0 0 1 10,0 a 5 5 0 0 1 -10,0 Z" fill="black" stroke="#000000" stroke-width="1" /><text font-size="10px" text-anchor="end" x="789.0" y="515.2307692307693">λ=1.00e-05</text><path d="M 0,448 L 100,448 L 100,491 L 0,491 Z M 100,468 L 0,468 Z" fill="#ffffff" fill-opacity="1" stroke="#000000" stroke-opacity="1" stroke-width="1" /><text  font-size="10px" text-anchor="middle" x="50.23076923076914" y="462.28671328671237">C1L</text ><text  font-size="10px" text-anchor="middle" x="50.23076923076914" y="481.28671328671237" /><path d="M 45,496 a 5 5 0 0 1 10,0 a 5 5 0 0 1 -10,0 Z" fill="black" stroke="#000000" stroke-width="1" /><text font-size="10px" text-anchor="end" x="100.23076923076914" y="511.28671328671237">λ=1.00e-05</text></g></svg>