<?xml version='1.0' encoding='utf-8'?>
<svg viewBox="1 1 1488 1054" xmlns="http://www.w3.org/2000/svg" xmlns:svg="http://www.w3.org/2000/svg" xmlns:xlink="http://www.w3.org/1999/xlink"><style type="text/css">text{font-family:Arial;}</style><rect fill="none" fill-opacity="0" height="1052" stroke="#000000" stroke-opacity="1" stroke-width="1" width="1486" x="1" y="1" /><line fill="none" stroke="#000000" stroke-width="1" x1="1" x2="1486" y1="60" y2="60" /><line fill="none" stroke="#000000" stroke-width="1" x1="744" x2="744" y1="1" y2="60" /><line fill="none" stroke="#000000" stroke-width="1" x1="1" x2="1486" y1="90" y2="90" /><text text-anchor="start" x="10" y="20">Project: </text><text text-anchor="start" x="10" y="50">Name: Page   1</text><text text-anchor="end" x="739" y="50">Page 1/1</text><text text-anchor="start" x="749" y="20">Company: </text><text text-anchor="end" x="1481" y="20">Author: gdai</text><text text-anchor="start" x="749" y="50">Version: version 1</text><text text-anchor="middle" x="1115" y="50">Created on: 22/10/28 at 10:21</text><text text-anchor="end" x="1481" y="50">Last changed: 22/10/28 at 10:21</text><text x="10" y="80">Arbre Analyste - version 2.3.2 - 2014-19</text><g transform="translate(201.897191, 100.000000) scale(0.982456)" x="1" y="1"><path d="M 161,167 L 261,167 L 261,210 L 161,210 Z M 261,187 L 161,187 Z" fill="#ffffff" fill-opacity="1" stroke="#000000" stroke-opacity="1" stroke-width="1" /><text  font-size="10px" text-anchor="middle" x="211.38461538461593" y="181.0">FC_A1</text ><text  font-size="10px" text-anchor="middle" x="211.38461538461593" y="200.0" /><path d="M 196,225 a 15 15 0 0 1 30,0 l 0,15 l -30,0 Z" fill="white" fill-opacity="0" stroke="#000000" stroke-opacity="1" stroke-width="1" /><text  font-size="10px" text-anchor="start" x="231.38461538461593" y="222.0">Q=9.9e-07</text ><text  font-size="10px" text-anchor="start" x="231.38461538461593" y="235.0">F=9.9e-07</text ><text  font-size="10px" text-anchor="end" x="191.38461538461593" y="222.0">T=1000</text ><path d="M 211,240 L 211,308 L 115,308 L 115,320" fill="none" fill-opacity="0" stroke="#000000" stroke-opacity="1" stroke-width="1" /><path d="M 211,240 L 211,308 L 251,308 L 251,320" fill="none" fill-opacity="0" stroke="#000000" stroke-opacity="1" stroke-width="1" /><path d="M 418,170 L 518,170 L 518,213 L 418,213 Z M 518,190 L 418,190 Z" fill="#ffffff" fill-opacity="1" stroke="#000000" stroke-opacity="1" stroke-width="1" /><text  font-size="10px" text-anchor="middle" x="468.3846153846159" y="184.0">FC_A2</text ><text  font-size="10px" text-anchor="middle" x="468.3846153846159" y="203.0" /><path d="M 453,228 a 15 15 0 0 1 30,0 l 0,15 l -30,0 Z" fill="white" fill-opacity="0" stroke="#000000" stroke-opacity="1" stroke-width="1" /><text  font-size="10px" text-anchor="start" x="488.3846153846159" y="225.0">Q=9.9e-05</text ><text  font-size="10px" text-anchor="start" x="488.3846153846159" y="238.0">F=9.9e-05</text ><text  font-size="10px" text-anchor="end" x="448.3846153846159" y="225.0">T=1000</text ><path d="M 468,243 L 468,310 L 390,310 L 390,322" fill="none" fill-opacity="0" stroke="#000000" stroke-opacity="1" stroke-width="1" /><path d="M 468,243 L 468,310 L 525,310 L 525,322" fill="none" fill-opacity="0" stroke="#000000" stroke-opacity="1" stroke-width="1" /><path d="M 675,169 L 775,169 L 775,212 L 675,212 Z M 775,189 L 675,189 Z" fill="#ffffff" fill-opacity="1" stroke="#000000" stroke-opacity="1" stroke-width="1" /><text  font-size="10px" text-anchor="middle" x="725.3846153846159" y="183.0">FC_A3</text ><text  font-size="10px" text-anchor="middle" x="725.3846153846159" y="202.0" /><path d="M 710,227 a 15 15 0 0 1 30,0 l 0,15 l -30,0 Z" fill="white" fill-opacity="0" stroke="#000000" stroke-opacity="1" stroke-width="1" /><text  font-size="10px" text-anchor="start" x="745.3846153846159" y="224.0">Q=9.9e-07</text ><text  font-size="10px" text-anchor="start" x="745.3846153846159" y="237.0">F=9.9e-07</text ><text  font-size="10px" text-anchor="end" x="705.3846153846159" y="224.0">T=1000</text ><path d="M 725,242 L 725,313 L 804,313 L 804,326" fill="none" fill-opacity="0" stroke="#000000" stroke-opacity="1" stroke-width="1" /><path d="M 725,242 L 725,313 L 660,313 L 660,325" fill="none" fill-opacity="0" stroke="#000000" stroke-opacity="1" stroke-width="1" /><path d="M 418,0 L 518,0 L 518,43 L 418,43 Z M 518,20 L 418,20 Z" fill="#ffffff" fill-opacity="1" stroke="#000000" stroke-opacity="1" stroke-width="1" /><text  font-size="10px" text-anchor="middle" x="468.3846153846159" y="14.0">FC_One_Appli</text ><text  font-size="10px" text-anchor="middle" x="468.3846153846159" y="33.0" /><path d="M 453,73 m 15,-8 l 0,8 m -15,0 a 15 30 0 0 1 30,0 a 15 8 0 0 0 -30,0, Z" fill="white" fill-opacity="0" stroke="#000000" stroke-opacity="1" stroke-width="1" /><text  font-size="10px" text-anchor="start" x="488.3846153846159" y="55.0">Q=1.4e-07</text ><text  font-size="10px" text-anchor="start" x="488.3846153846159" y="68.0">F=1.4e-07</text ><text  font-size="10px" text-anchor="end" x="448.3846153846159" y="55.0">T=1000</text ><path d="M 468,73 L 468,155 L 211,155 L 211,167" fill="none" fill-opacity="0" stroke="#000000" stroke-opacity="1" stroke-width="1" /><path d="M 468,73 L 468,155 L 725,155 L 725,169" fill="none" fill-opacity="0" stroke="#000000" stroke-opacity="1" stroke-width="1" /><path d="M 468,73 L 468,155 L 468,155 L 468,170" fill="none" fill-opacity="0" stroke="#000000" stroke-opacity="1" stroke-width="1" /><path d="M 0,550 L 100,550 L 100,593 L 0,593 Z M 100,570 L 0,570 Z" fill="#ffffff" fill-opacity="1" stroke="#000000" stroke-opacity="1" stroke-width="1" /><text  font-size="10px" text-anchor="middle" x="50.0" y="564.4265734265731">SPL</text ><text  font-size="10px" text-anchor="middle" x="50.0" y="583.4265734265731" /><path d="M 45,598 a 5 5 0 0 1 10,0 a 5 5 0 0 1 -10,0 Z" fill="black" stroke="#000000" stroke-width="1" /><text font-size="10px" text-anchor="end" x="100.00000000000001" y="613.4265734265731">λ=1.00e-05</text><path d="M 65,320 L 165,320 L 165,363 L 65,363 Z M 165,340 L 65,340 Z" fill="#ffffff" fill-opacity="1" stroke="#000000" stroke-opacity="1" stroke-width="1" /><text  font-size="10px" text-anchor="middle" x="115.38461538461594" y="334.0">A1L</text ><text  font-size="10px" text-anchor="middle" x="115.38461538461594" y="353.0" /><path d="M 100,378 a 15 15 0 0 1 30,0 l 0,15 l -30,0 Z" fill="white" fill-opacity="0" stroke="#000000" stroke-opacity="1" stroke-width="1" /><path d="M 115,393 L 115,437 L 136,437 L 136,449" fill="none" fill-opacity="0" stroke="#000000" stroke-opacity="1" stroke-width="1" /><path d="M 115,393 L 115,437 L 50,437 L 50,550" fill="none" fill-opacity="0" stroke="#000000" stroke-opacity="1" stroke-width="1" /><path d="M 201,320 L 301,320 L 301,363 L 201,363 Z M 301,340 L 201,340 Z" fill="#ffffff" fill-opacity="1" stroke="#000000" stroke-opacity="1" stroke-width="1" /><text  font-size="10px" text-anchor="middle" x="251.38461538461593" y="334.0">A1R</text ><text  font-size="10px" text-anchor="middle" x="251.38461538461593" y="353.0" /><path d="M 236,378 a 15 15 0 0 1 30,0 l 0,15 l -30,0 Z" fill="white" fill-opacity="0" stroke="#000000" stroke-opacity="1" stroke-width="1" /><text  font-size="10px" text-anchor="start" x="271.3846153846159" y="375.0">Q=1.0e-02</text ><text  font-size="10px" text-anchor="start" x="271.3846153846159" y="388.0">F=9.9e-03</text ><text  font-size="10px" text-anchor="end" x="231.38461538461593" y="375.0">T=1000</text ><path d="M 251,393 L 251,436 L 274,436 L 274,448" fill="none" fill-opacity="0" stroke="#000000" stroke-opacity="1" stroke-width="1" /><path d="M 251,393 L 251,436 L 210,436 L 210,547" fill="none" fill-opacity="0" stroke="#000000" stroke-opacity="1" stroke-width="1" /><path d="M 224,448 L 324,448 L 324,491 L 224,491 Z M 324,468 L 224,468 Z" fill="#ffffff" fill-opacity="1" stroke="#000000" stroke-opacity="1" stroke-width="1" /><text  font-size="10px" text-anchor="middle" x="274.11188811188896" y="462.818181818182">C1R</text ><text  font-size="10px" text-anchor="middle" x="274.11188811188896" y="481.818181818182" /><path d="M 269,496 a 5 5 0 0 1 10,0 a 5 5 0 0 1 -10,0 Z" fill="black" stroke="#000000" stroke-width="1" /><text font-size="10px" text-anchor="end" x="324.11188811188896" y="511.818181818182">λ=1.00e-05</text><path d="M 340,322 L 440,322 L 440,365 L 340,365 Z M 440,342 L 340,342 Z" fill="#ffffff" fill-opacity="1" stroke="#000000" stroke-opacity="1" stroke-width="1" /><text  font-size="10px" text-anchor="middle" x="390.3846153846159" y="336.0">A2L</text ><text  font-size="10px" text-anchor="middle" x="390.3846153846159" y="355.0" /><path d="M 375,380 a 15 15 0 0 1 30,0 l 0,15 l -30,0 Z" fill="white" fill-opacity="0" stroke="#000000" stroke-opacity="1" stroke-width="1" /><text  font-size="10px" text-anchor="start" x="410.3846153846159" y="377.0">Q=1.0e-02</text ><text  font-size="10px" text-anchor="start" x="410.3846153846159" y="390.0">F=9.9e-03</text ><text  font-size="10px" text-anchor="end" x="370.3846153846159" y="377.0">T=1000</text ><path d="M 390,395 L 390,439 L 408,439 L 408,451" fill="none" fill-opacity="0" stroke="#000000" stroke-opacity="1" stroke-width="1" /><path d="M 390,395 L 390,439 L 350,439 L 350,547" fill="none" fill-opacity="0" stroke="#000000" stroke-opacity="1" stroke-width="1" /><path d="M 358,451 L 458,451 L 458,494 L 358,494 Z M 458,471 L 358,471 Z" fill="#ffffff" fill-opacity="1" stroke="#000000" stroke-opacity="1" stroke-width="1" /><text  font-size="10px" text-anchor="middle" x="408.5664335664345" y="465.727272727273">C2L</text ><text  font-size="10px" text-anchor="middle" x="408.5664335664345" y="484.727272727273" /><path d="M 403,499 a 5 5 0 0 1 10,0 a 5 5 0 0 1 -10,0 Z" fill="black" stroke="#000000" stroke-width="1" /><text font-size="10px" text-anchor="end" x="458.5664335664345" y="514.727272727273">λ=1.00e-05</text><path d="M 475,322 L 575,322 L 575,365 L 475,365 Z M 575,342 L 475,342 Z" fill="#ffffff" fill-opacity="1" stroke="#000000" stroke-opacity="1" stroke-width="1" /><text  font-size="10px" text-anchor="middle" x="525.9300699300703" y="336.090909090909">A2R</text ><text  font-size="10px" text-anchor="middle" x="525.9300699300703" y="355.090909090909" /><path d="M 510,380 a 15 15 0 0 1 30,0 l 0,15 l -30,0 Z" fill="white" fill-opacity="0" stroke="#000000" stroke-opacity="1" stroke-width="1" /><text  font-size="10px" text-anchor="start" x="545.9300699300703" y="377.090909090909">Q=1.0e-02</text ><text  font-size="10px" text-anchor="start" x="545.9300699300703" y="390.090909090909">F=9.9e-03</text ><text  font-size="10px" text-anchor="end" x="505.9300699300703" y="377.090909090909">T=1000</text ><path d="M 525,395 L 525,439 L 518,439 L 518,451" fill="none" fill-opacity="0" stroke="#000000" stroke-opacity="1" stroke-width="1" /><path d="M 525,395 L 525,439 L 579,439 L 579,546" fill="none" fill-opacity="0" stroke="#000000" stroke-opacity="1" stroke-width="1" /><path d="M 468,451 L 568,451 L 568,494 L 468,494 Z M 568,471 L 468,471 Z" fill="#ffffff" fill-opacity="1" stroke="#000000" stroke-opacity="1" stroke-width="1" /><text  font-size="10px" text-anchor="middle" x="518.6573426573433" y="465.81818181818187">C2R</text ><text  font-size="10px" text-anchor="middle" x="518.6573426573433" y="484.81818181818187" /><path d="M 513,499 a 5 5 0 0 1 10,0 a 5 5 0 0 1 -10,0 Z" fill="black" stroke="#000000" stroke-width="1" /><text font-size="10px" text-anchor="end" x="568.6573426573433" y="514.8181818181819">λ=1.00e-05</text><path d="M 610,325 L 710,325 L 710,368 L 610,368 Z M 710,345 L 610,345 Z" fill="#ffffff" fill-opacity="1" stroke="#000000" stroke-opacity="1" stroke-width="1" /><text  font-size="10px" text-anchor="middle" x="660.3846153846159" y="339.0">A3L</text ><text  font-size="10px" text-anchor="middle" x="660.3846153846159" y="358.0" /><path d="M 645,383 a 15 15 0 0 1 30,0 l 0,15 l -30,0 Z" fill="white" fill-opacity="0" stroke="#000000" stroke-opacity="1" stroke-width="1" /><text  font-size="10px" text-anchor="start" x="680.3846153846159" y="380.0">Q=1.0e-02</text ><text  font-size="10px" text-anchor="start" x="680.3846153846159" y="393.0">F=9.9e-03</text ><text  font-size="10px" text-anchor="end" x="640.3846153846159" y="380.0">T=1000</text ><path d="M 660,398 L 660,440 L 660,440 L 660,452" fill="none" fill-opacity="0" stroke="#000000" stroke-opacity="1" stroke-width="1" /><path d="M 660,398 L 660,440 L 738,440 L 738,757" fill="none" fill-opacity="0" stroke="#000000" stroke-opacity="1" stroke-width="1" /><path d="M 610,452 L 710,452 L 710,495 L 610,495 Z M 710,472 L 610,472 Z" fill="#ffffff" fill-opacity="1" stroke="#000000" stroke-opacity="1" stroke-width="1" /><text  font-size="10px" text-anchor="middle" x="660.3846153846159" y="466.0">C3L</text ><text  font-size="10px" text-anchor="middle" x="660.3846153846159" y="485.0" /><path d="M 655,500 a 5 5 0 0 1 10,0 a 5 5 0 0 1 -10,0 Z" fill="black" stroke="#000000" stroke-width="1" /><text font-size="10px" text-anchor="end" x="710.3846153846159" y="515.0">λ=1.00e-05</text><path d="M 754,326 L 854,326 L 854,369 L 754,369 Z M 854,346 L 754,346 Z" fill="#ffffff" fill-opacity="1" stroke="#000000" stroke-opacity="1" stroke-width="1" /><text  font-size="10px" text-anchor="middle" x="804.3846153846159" y="340.0">A3R</text ><text  font-size="10px" text-anchor="middle" x="804.3846153846159" y="359.0" /><path d="M 789,384 a 15 15 0 0 1 30,0 l 0,15 l -30,0 Z" fill="white" fill-opacity="0" stroke="#000000" stroke-opacity="1" stroke-width="1" /><text  font-size="10px" text-anchor="start" x="824.3846153846159" y="381.0">Q=1.0e-02</text ><text  font-size="10px" text-anchor="start" x="824.3846153846159" y="394.0">F=9.9e-03</text ><text  font-size="10px" text-anchor="end" x="784.3846153846159" y="381.0">T=1000</text ><path d="M 804,399 L 804,439 L 796,439 L 796,451" fill="none" fill-opacity="0" stroke="#000000" stroke-opacity="1" stroke-width="1" /><path d="M 804,399 L 804,439 L 935,439 L 935,548" fill="none" fill-opacity="0" stroke="#000000" stroke-opacity="1" stroke-width="1" /><path d="M 746,451 L 846,451 L 846,494 L 746,494 Z M 846,471 L 746,471 Z" fill="#ffffff" fill-opacity="1" stroke="#000000" stroke-opacity="1" stroke-width="1" /><text  font-size="10px" text-anchor="middle" x="796.6923076923085" y="465.46153846153857">C3R_a</text ><text  font-size="10px" text-anchor="middle" x="796.6923076923085" y="484.46153846153857" /><path d="M 791,499 a 5 5 0 0 1 10,0 a 5 5 0 0 1 -10,0 Z" fill="black" stroke="#000000" stroke-width="1" /><text font-size="10px" text-anchor="end" x="846.6923076923085" y="514.4615384615386">λ=1.00e-05</text><path d="M 86,449 L 186,449 L 186,492 L 86,492 Z M 186,469 L 86,469 Z" fill="#ffffff" fill-opacity="1" stroke="#000000" stroke-opacity="1" stroke-width="1" /><text  font-size="10px" text-anchor="middle" x="136.38461538461598" y="463.0559440559431">C1L</text ><text  font-size="10px" text-anchor="middle" x="136.38461538461598" y="482.0559440559431" /><path d="M 131,497 a 5 5 0 0 1 10,0 a 5 5 0 0 1 -10,0 Z" fill="black" stroke="#000000" stroke-width="1" /><text font-size="10px" text-anchor="end" x="186.38461538461598" y="512.0559440559431">λ=1.00e-05</text><path d="M 160,547 L 260,547 L 260,590 L 160,590 Z M 260,567 L 160,567 Z" fill="#ffffff" fill-opacity="1" stroke="#000000" stroke-opacity="1" stroke-width="1" /><text  font-size="10px" text-anchor="middle" x="210.02097902097938" y="561.727272727273">SPR</text ><text  font-size="10px" text-anchor="middle" x="210.02097902097938" y="580.727272727273" /><path d="M 205,595 a 5 5 0 0 1 10,0 a 5 5 0 0 1 -10,0 Z" fill="black" stroke="#000000" stroke-width="1" /><text font-size="10px" text-anchor="end" x="260.0209790209794" y="610.727272727273">λ=1.00e-05</text><path d="M 300,547 L 400,547 L 400,590 L 300,590 Z M 400,567 L 300,567 Z" fill="#ffffff" fill-opacity="1" stroke="#000000" stroke-opacity="1" stroke-width="1" /><text  font-size="10px" text-anchor="middle" x="350.0209790209792" y="561.7272727272731">FC_SP_2_L</text ><text  font-size="10px" text-anchor="middle" x="350.0209790209792" y="580.7272727272731" /><path d="M 335,620 m 15,-8 l 0,8 m -15,0 a 15 30 0 0 1 30,0 a 15 8 0 0 0 -30,0, Z" fill="white" fill-opacity="0" stroke="#000000" stroke-opacity="1" stroke-width="1" /><path d="M 350,620 L 350,657 L 294,657 L 294,669" fill="none" fill-opacity="0" stroke="#000000" stroke-opacity="1" stroke-width="1" /><path d="M 350,620 L 350,657 L 419,657 L 419,669" fill="none" fill-opacity="0" stroke="#000000" stroke-opacity="1" stroke-width="1" /><path d="M 244,669 L 344,669 L 344,712 L 244,712 Z M 344,689 L 244,689 Z" fill="#ffffff" fill-opacity="1" stroke="#000000" stroke-opacity="1" stroke-width="1" /><text  font-size="10px" text-anchor="middle" x="294.5664335664338" y="683.5454545454545">SPL</text ><text  font-size="10px" text-anchor="middle" x="294.5664335664338" y="702.5454545454545" /><path d="M 289,717 a 5 5 0 0 1 10,0 a 5 5 0 0 1 -10,0 Z" fill="black" stroke="#000000" stroke-width="1" /><text font-size="10px" text-anchor="end" x="344.5664335664338" y="732.5454545454545">λ=1.00e-05</text><path d="M 369,669 L 469,669 L 469,712 L 369,712 Z M 469,689 L 369,689 Z" fill="#ffffff" fill-opacity="1" stroke="#000000" stroke-opacity="1" stroke-width="1" /><text  font-size="10px" text-anchor="middle" x="419.1118881118885" y="683.5454545454548">C1L</text ><text  font-size="10px" text-anchor="middle" x="419.1118881118885" y="702.5454545454548" /><path d="M 414,717 a 5 5 0 0 1 10,0 a 5 5 0 0 1 -10,0 Z" fill="black" stroke="#000000" stroke-width="1" /><text font-size="10px" text-anchor="end" x="469.11188811188845" y="732.5454545454548">λ=1.00e-05</text><path d="M 529,546 L 629,546 L 629,589 L 529,589 Z M 629,566 L 529,566 Z" fill="#ffffff" fill-opacity="1" stroke="#000000" stroke-opacity="1" stroke-width="1" /><text  font-size="10px" text-anchor="middle" x="579.1118881118896" y="560.8181818181821">FC_SP_2_R</text ><text  font-size="10px" text-anchor="middle" x="579.1118881118896" y="579.8181818181821" /><path d="M 564,619 m 15,-8 l 0,8 m -15,0 a 15 30 0 0 1 30,0 a 15 8 0 0 0 -30,0, Z" fill="white" fill-opacity="0" stroke="#000000" stroke-opacity="1" stroke-width="1" /><path d="M 579,619 L 579,657 L 545,657 L 545,669" fill="none" fill-opacity="0" stroke="#000000" stroke-opacity="1" stroke-width="1" /><path d="M 579,619 L 579,657 L 665,657 L 665,671" fill="none" fill-opacity="0" stroke="#000000" stroke-opacity="1" stroke-width="1" /><path d="M 495,669 L 595,669 L 595,712 L 495,712 Z M 595,689 L 495,689 Z" fill="#ffffff" fill-opacity="1" stroke="#000000" stroke-opacity="1" stroke-width="1" /><text  font-size="10px" text-anchor="middle" x="545.4755244755252" y="683.545454545454">SPR</text ><text  font-size="10px" text-anchor="middle" x="545.4755244755252" y="702.545454545454" /><path d="M 540,717 a 5 5 0 0 1 10,0 a 5 5 0 0 1 -10,0 Z" fill="black" stroke="#000000" stroke-width="1" /><text font-size="10px" text-anchor="end" x="595.4755244755252" y="732.545454545454">λ=1.00e-05</text><path d="M 615,671 L 715,671 L 715,714 L 615,714 Z M 715,691 L 615,691 Z" fill="#ffffff" fill-opacity="1" stroke="#000000" stroke-opacity="1" stroke-width="1" /><text  font-size="10px" text-anchor="middle" x="665.4755244755252" y="685.3636363636357">C1R</text ><text  font-size="10px" text-anchor="middle" x="665.4755244755252" y="704.3636363636357" /><path d="M 660,719 a 5 5 0 0 1 10,0 a 5 5 0 0 1 -10,0 Z" fill="black" stroke="#000000" stroke-width="1" /><text font-size="10px" text-anchor="end" x="715.4755244755252" y="734.3636363636357">λ=1.00e-05</text><path d="M 688,757 L 788,757 L 788,800 L 688,800 Z M 788,777 L 688,777 Z" fill="#ffffff" fill-opacity="1" stroke="#000000" stroke-opacity="1" stroke-width="1" /><text  font-size="10px" text-anchor="middle" x="738.2027972027981" y="771.0909090909099">FC_SP_3_L</text ><text  font-size="10px" text-anchor="middle" x="738.2027972027981" y="790.0909090909099" /><path d="M 723,830 m 15,-8 l 0,8 m -15,0 a 15 30 0 0 1 30,0 a 15 8 0 0 0 -30,0, Z" fill="white" fill-opacity="0" stroke="#000000" stroke-opacity="1" stroke-width="1" /><path d="M 738,830 L 738,851 L 598,851 L 598,863" fill="none" fill-opacity="0" stroke="#000000" stroke-opacity="1" stroke-width="1" /><path d="M 738,830 L 738,851 L 723,851 L 723,864" fill="none" fill-opacity="0" stroke="#000000" stroke-opacity="1" stroke-width="1" /><path d="M 738,830 L 738,851 L 850,851 L 850,866" fill="none" fill-opacity="0" stroke="#000000" stroke-opacity="1" stroke-width="1" /><path d="M 548,863 L 648,863 L 648,906 L 548,906 Z M 648,883 L 548,883 Z" fill="#ffffff" fill-opacity="1" stroke="#000000" stroke-opacity="1" stroke-width="1" /><text  font-size="10px" text-anchor="middle" x="598.3846153846159" y="877.0">SPL</text ><text  font-size="10px" text-anchor="middle" x="598.3846153846159" y="896.0" /><path d="M 593,911 a 5 5 0 0 1 10,0 a 5 5 0 0 1 -10,0 Z" fill="black" stroke="#000000" stroke-width="1" /><text font-size="10px" text-anchor="end" x="648.3846153846159" y="926.0">λ=1.00e-05</text><path d="M 673,864 L 773,864 L 773,907 L 673,907 Z M 773,884 L 673,884 Z" fill="#ffffff" fill-opacity="1" stroke="#000000" stroke-opacity="1" stroke-width="1" /><text  font-size="10px" text-anchor="middle" x="723.3846153846159" y="878.0">C1L</text ><text  font-size="10px" text-anchor="middle" x="723.3846153846159" y="897.0" /><path d="M 718,912 a 5 5 0 0 1 10,0 a 5 5 0 0 1 -10,0 Z" fill="black" stroke="#000000" stroke-width="1" /><text font-size="10px" text-anchor="end" x="773.3846153846159" y="927.0">λ=1.00e-05</text><path d="M 800,866 L 900,866 L 900,909 L 800,909 Z M 900,886 L 800,886 Z" fill="#ffffff" fill-opacity="1" stroke="#000000" stroke-opacity="1" stroke-width="1" /><text  font-size="10px" text-anchor="middle" x="850.3846153846159" y="880.0">C2L</text ><text  font-size="10px" text-anchor="middle" x="850.3846153846159" y="899.0" /><path d="M 845,914 a 5 5 0 0 1 10,0 a 5 5 0 0 1 -10,0 Z" fill="black" stroke="#000000" stroke-width="1" /><text font-size="10px" text-anchor="end" x="900.3846153846159" y="929.0">λ=1.00e-05</text><path d="M 885,548 L 985,548 L 985,591 L 885,591 Z M 985,568 L 885,568 Z" fill="#ffffff" fill-opacity="1" stroke="#000000" stroke-opacity="1" stroke-width="1" /><text  font-size="10px" text-anchor="middle" x="935.5512820512811" y="562.3333333333331">FC_SP_3_R</text ><text  font-size="10px" text-anchor="middle" x="935.5512820512811" y="581.3333333333331" /><path d="M 920,621 m 15,-8 l 0,8 m -15,0 a 15 30 0 0 1 30,0 a 15 8 0 0 0 -30,0, Z" fill="white" fill-opacity="0" stroke="#000000" stroke-opacity="1" stroke-width="1" /><path d="M 935,621 L 935,662 L 801,662 L 801,674" fill="none" fill-opacity="0" stroke="#000000" stroke-opacity="1" stroke-width="1" /><path d="M 935,621 L 935,662 L 926,662 L 926,675" fill="none" fill-opacity="0" stroke="#000000" stroke-opacity="1" stroke-width="1" /><path d="M 935,621 L 935,662 L 1053,662 L 1053,677" fill="none" fill-opacity="0" stroke="#000000" stroke-opacity="1" stroke-width="1" /><path d="M 751,674 L 851,674 L 851,717 L 751,717 Z M 851,694 L 751,694 Z" fill="#ffffff" fill-opacity="1" stroke="#000000" stroke-opacity="1" stroke-width="1" /><text  font-size="10px" text-anchor="middle" x="801.5664335664325" y="688.2424242424238">SPR</text ><text  font-size="10px" text-anchor="middle" x="801.5664335664325" y="707.2424242424238" /><path d="M 796,722 a 5 5 0 0 1 10,0 a 5 5 0 0 1 -10,0 Z" fill="black" stroke="#000000" stroke-width="1" /><text font-size="10px" text-anchor="end" x="851.5664335664325" y="737.2424242424238">λ=1.00e-05</text><path d="M 876,675 L 976,675 L 976,718 L 876,718 Z M 976,695 L 876,695 Z" fill="#ffffff" fill-opacity="1" stroke="#000000" stroke-opacity="1" stroke-width="1" /><text  font-size="10px" text-anchor="middle" x="926.5664335664325" y="689.2424242424238">C1R</text ><text  font-size="10px" text-anchor="middle" x="926.5664335664325" y="708.2424242424238" /><path d="M 921,723 a 5 5 0 0 1 10,0 a 5 5 0 0 1 -10,0 Z" fill="black" stroke="#000000" stroke-width="1" /><text font-size="10px" text-anchor="end" x="976.5664335664325" y="738.2424242424238">λ=1.00e-05</text><path d="M 1003,677 L 1103,677 L 1103,720 L 1003,720 Z M 1103,697 L 1003,697 Z" fill="#ffffff" fill-opacity="1" stroke="#000000" stroke-opacity="1" stroke-width="1" /><text  font-size="10px" text-anchor="middle" x="1053.5664335664358" y="691.2424242424238">C2R</text ><text  font-size="10px" text-anchor="middle" x="1053.5664335664358" y="710.2424242424238" /><path d="M 1048,725 a 5 5 0 0 1 10,0 a 5 5 0 0 1 -10,0 Z" fill="black" stroke="#000000" stroke-width="1" /><text font-size="10px" text-anchor="end" x="1103.5664335664358" y="740.2424242424238">λ=1.00e-05</text></g></svg>